<?xml version="1.0" encoding="iso-8859-1"?>
<!-- Generator: Adobe Illustrator 19.0.0, SVG Export Plug-In . SVG Version: 6.00 Build 0)  -->
<svg version="1.1" id="Capa_1" xmlns="http://www.w3.org/2000/svg" xmlns:xlink="http://www.w3.org/1999/xlink" x="0px" y="0px"
	 viewBox="0 0 511.978 511.978" style="enable-background:new 0 0 511.978 511.978;" xml:space="preserve">
<g>
	<path style="fill:#35495E;" d="M151.547,310.466L10.306,451.708c-13.758,13.804-13.739,36.141,0.042,49.922
		s36.118,13.8,49.922,0.042L201.512,360.43L151.547,310.466z"/>
	<circle style="fill:#3F5C6C;" cx="300.116" cy="211.862" r="211.862"/>
	<circle style="fill:#90BAE1;" cx="300.116" cy="211.862" r="176.552"/>
	<g>
		<path style="fill:#E6E7E8;" d="M300.111,264.828c-9.751-0.001-17.654-7.907-17.654-17.657v-27.175
			c0.071-13.14,9.737-24.255,22.74-26.15c9.74-1.432,18.445-6.855,24.023-14.967c5.579-8.112,7.528-18.18,5.38-27.788
			c-2.898-13.363-13.334-23.801-26.697-26.701c-10.476-2.346-21.45,0.193-29.831,6.901c-8.381,6.708-13.263,16.86-13.269,27.595
			c0.014,6.317-3.348,12.159-8.816,15.322s-12.209,3.162-17.677,0c-5.468-3.162-8.83-9.005-8.816-15.322
			c0.015-36.69,28.127-67.256,64.688-70.334c36.561-3.078,69.387,22.358,75.536,58.529c6.149,36.171-16.43,71.025-51.954,80.201
			v19.889C317.765,256.921,309.862,264.826,300.111,264.828z"/>
		<circle style="fill:#E6E7E8;" cx="300.116" cy="317.793" r="17.655"/>
	</g>
	
		<rect x="72.971" y="381.606" transform="matrix(-0.7071 0.7071 -0.7071 -0.7071 457.1237 644.486)" style="fill:#547580;" width="44.226" height="70.621"/>
</g>
<g>
</g>
<g>
</g>
<g>
</g>
<g>
</g>
<g>
</g>
<g>
</g>
<g>
</g>
<g>
</g>
<g>
</g>
<g>
</g>
<g>
</g>
<g>
</g>
<g>
</g>
<g>
</g>
<g>
</g>
</svg>
